<svg width="1440" height="927" viewBox="0 0 1440 927" fill="none" xmlns="http://www.w3.org/2000/svg">
<path opacity="0.0263158" d="M-156.269 859.195C102.179 768.644 94.975 722.535 -156.269 647.254C63.1649 553.843 70.4296 509.364 -156.269 446.545C69.2992 348.139 152.333 292.967 -156.269 194.56C90.384 112.027 135.113 63.0608 -156.269 -34.9616C41.0007 -145.412 50.3876 -203.517 -156.269 -298.667C62.2392 -442.832 32.8957 -494.92 -156.269 -561.884" stroke="#F0F0F0"/>
<path opacity="0.0526316" d="M-165.754 854.429C102.915 780.188 101.444 733.875 -139.528 643.578C90.6293 564.1 103.37 520.294 -114.692 443.901C122.195 359.829 211.739 310.032 -83.5107 193.212C172.416 126.224 223.034 80.2518 -55.1092 -35.1297C155.077 -132.919 171.618 -190.15 -22.4778 -297.479C213.038 -427.508 190.251 -481.126 10.0932 -559.343" stroke="#F0F0F0"/>
<path opacity="0.0789474" d="M-175.238 849.664C101.577 792.295 105.835 746.129 -123.056 641.503C116.042 576.56 134.148 533.761 -73.6393 444.373C172.73 375.274 268.086 331.228 -11.5978 196.882C251.628 145.948 307.734 103.319 44.9129 -28.5458C266.379 -112.931 289.93 -168.854 109.84 -287.548C360.523 -402.453 344.45 -457.196 174.647 -546.071" stroke="#F0F0F0"/>
<path opacity="0.105263" d="M-184.724 844.898C98.1022 804.835 108.042 759.165 -107.052 641.003C139.138 591.086 162.456 549.618 -33.4961 447.913C220.449 394.308 320.873 356.347 58.8511 205.494C327.346 170.997 388.496 132.033 142.966 -15.3148C373.991 -85.6592 404.352 -139.85 239.608 -269.01C503.504 -367.923 494.249 -423.375 336.072 -522.235" stroke="#F0F0F0"/>
<path opacity="0.131579" d="M-194.208 840.133C92.4466 817.675 107.977 772.846 -91.7056 642.042C159.671 607.526 188.01 567.7 5.3646 454.449C264.922 416.74 369.631 385.149 127.234 218.931C398.927 201.13 464.641 166.124 238.239 4.40888C477.029 -51.3657 513.951 -103.416 365.776 -242.063C640.83 -324.241 638.447 -379.983 493.078 -488.079" stroke="#F0F0F0"/>
<path opacity="0.157895" d="M-203.693 835.367C84.5803 830.678 105.569 787.028 -77.2068 644.572C177.415 625.711 210.545 587.829 42.5766 463.888C305.739 442.353 413.92 417.369 192.962 237.043C465.76 236.066 535.522 205.282 329.94 30.4216C574.644 -10.3675 617.828 -59.8853 487.32 -206.974C771.393 -271.801 775.885 -327.414 644.408 -443.929" stroke="#F0F0F0"/>
<path opacity="0.184211" d="M-213.178 830.602C74.4936 843.708 100.767 801.564 -63.7334 648.533C192.167 645.461 229.822 609.806 77.791 476.112C342.527 470.907 453.339 452.714 255.471 259.643C527.274 275.489 600.538 249.156 417.312 62.4717C666.033 36.9675 715.134 -9.64697 603.256 -164.066C894.144 -211.064 905.46 -266.13 788.857 -390.184" stroke="#F0F0F0"/>
<path opacity="0.210526" d="M-222.663 825.836C62.1906 856.627 93.5359 816.306 -51.4595 653.854C203.746 666.585 245.627 633.423 110.671 490.987C374.937 502.139 487.521 490.869 314.222 286.511C582.937 319.05 659.131 297.362 499.627 100.263C750.441 90.2253 805.067 46.8622 712.645 -113.723C1008.09 -142.551 1026.13 -196.657 925.269 -327.313" stroke="#F0F0F0"/>
<path opacity="0.236842" d="M-232.148 821.071C47.695 869.3 83.8607 831.101 -40.5462 660.457C211.996 688.88 257.773 658.457 140.902 508.354C402.659 535.766 516.144 531.498 368.706 317.394C632.265 366.368 710.797 349.484 576.201 143.457C827.169 148.947 886.889 109.157 814.6 -56.3848C1112.32 -66.8428 1136.93 -119.583 1052.56 -255.857" stroke="#F0F0F0"/>
<path opacity="0.263158" d="M-241.634 816.305C31.0466 881.593 71.7457 845.8 -31.145 668.25C216.788 712.136 266.1 684.677 168.189 528.04C425.421 571.488 538.928 574.245 418.447 352.011C674.824 417.034 755.083 405.075 646.396 191.674C895.58 212.633 959.925 176.711 908.295 7.45728C1205.98 15.4272 1236.96 -35.5541 1169.71 -176.418" stroke="#F0F0F0"/>
<path opacity="0.289474" d="M-251.12 811.54C12.3006 893.374 57.2126 860.252 -23.3966 677.134C218.019 736.133 270.481 711.84 192.259 549.851C442.985 608.988 555.638 618.741 463.008 390.051C710.232 470.615 791.596 463.664 709.621 244.496C955.098 280.747 1023.56 248.956 992.964 77.2636C1288.32 103.577 1325.42 54.7339 1275.78 -89.6595" stroke="#F0F0F0"/>
<path opacity="0.315789" d="M-260.604 806.774C-8.46749 904.515 40.3056 874.308 -17.4247 687.003C215.616 760.65 270.819 739.699 212.868 573.58C455.158 647.938 566.088 664.602 501.994 431.18C738.166 526.657 820.005 524.758 765.345 301.474C1005.22 352.721 1077.28 325.293 1067.92 152.451C1358.66 196.882 1401.6 150.539 1369.93 3.7036" stroke="#F0F0F0"/>
<path opacity="0.342105" d="M-270.091 802.009C-31.1738 914.896 21.0805 887.824 -13.3459 697.744C209.528 785.459 267.043 768.002 229.793 599.005C461.785 687.999 570.137 711.437 535.047 475.04C758.353 584.687 840.035 587.845 813.089 362.127C1045.52 427.958 1120.6 405.091 1132.54 232.396C1416.44 294.579 1464.86 251.08 1451.4 102.906" stroke="#F0F0F0"/>
<path opacity="0.368421" d="M-279.574 797.243C-55.7104 924.399 -0.380371 900.66 -11.2533 709.235C199.743 810.332 259.125 796.493 242.848 625.891C462.76 728.825 567.7 758.847 561.865 521.254C770.593 644.221 851.488 652.402 852.443 425.946C1075.64 505.838 1153.17 487.694 1186.3 316.443C1461.16 395.874 1514.7 355.539 1519.54 207.142" stroke="#F0F0F0"/>
<path opacity="0.394737" d="M-289.06 792.478C-81.9656 932.915 -23.9872 912.679 -11.2346 721.351C186.264 835.041 247.056 824.916 251.867 653.993C458.012 770.062 558.734 806.429 582.184 569.428C774.733 704.76 854.219 717.892 883.055 492.401C1095.31 585.723 1174.69 572.428 1228.74 403.902C1492.45 499.948 1550.69 463.072 1573.78 315.567" stroke="#F0F0F0"/>
<path opacity="0.421053" d="M-298.545 787.712C-109.807 940.342 -49.627 923.754 -13.3544 733.961C169.134 859.359 230.866 853.015 256.722 683.059C447.52 811.358 543.25 853.781 595.797 619.153C770.693 765.803 848.159 783.775 904.644 560.944C1104.32 666.961 1184.94 658.603 1259.49 494.065C1510.03 605.962 1572.53 572.815 1613.68 427.31" stroke="#F0F0F0"/>
<path opacity="0.447368" d="M-308.03 782.947C-139.093 946.587 -77.1729 933.763 -17.6628 746.933C148.418 883.063 210.618 880.538 257.316 712.829C431.306 852.359 521.312 900.502 602.546 670.011C758.45 826.844 833.303 849.508 916.999 631.011C1102.58 748.892 1183.81 745.521 1278.29 586.201C1513.74 713.066 1580.01 683.889 1638.9 541.475" stroke="#F0F0F0"/>
<path opacity="0.473684" d="M-317.515 778.181C-169.668 951.566 -106.483 942.591 -24.1924 760.13C124.211 905.934 186.403 907.237 253.585 743.036C409.436 892.713 493.03 946.197 602.328 721.575C738.049 887.378 809.715 914.55 919.981 702.027C1090.03 830.849 1171.27 832.478 1284.94 679.568C1503.51 820.401 1573.04 795.403 1649.23 657.15" stroke="#F0F0F0"/>
<path opacity="0.5" d="M-327 773.416C-201.373 955.205 -137.404 950.138 -32.9615 773.416C96.6327 927.763 158.342 932.873 245.494 773.416C382.019 932.078 458.562 990.483 595.088 773.416C709.591 946.908 777.525 978.371 913.517 773.416C1066.75 912.173 1147.36 918.775 1279.37 773.416C1479.38 927.112 1551.64 906.472 1644.55 773.416" stroke="#F0F0F0"/>
</svg>
